<svg width="329" height="279" viewBox="0 0 329 279" fill="none" xmlns="http://www.w3.org/2000/svg">
<path d="M241.469 29.358C224.824 29.358 202.555 34.1317 174.662 43.679C146.77 53.2263 126.525 58 113.929 58C101.332 58 90.0854 54.6584 80.188 47.9753C70.2907 41.2922 63.0927 34.6091 58.5939 27.9259L52.5206 18.6173H70.0658C77.7137 29.5967 88.9607 35.0864 103.807 35.0864C118.653 35.0864 140.247 29.358 168.589 17.9012C196.931 5.96706 219.2 0 235.396 0C251.591 0 267.337 4.77365 282.633 14.321C298.379 23.3909 310.076 32.6996 317.724 42.2469L328.521 55.8519H310.975C292.53 38.1893 270.936 29.358 246.193 29.358C244.843 29.358 243.269 29.358 241.469 29.358Z" fill="white"/>
<path fill-rule="evenodd" clip-rule="evenodd" d="M156.197 109.111C137.413 129 128.021 153.678 128.021 183.144C128.021 194.93 129.77 206.532 133.269 217.95C136.952 229.184 142.109 239.405 148.739 248.613C155.369 257.637 163.84 265.004 174.153 270.713C184.466 276.238 195.884 279 208.407 279C222.956 279 235.019 274.949 244.595 266.845C254.356 258.742 259.236 247.6 259.236 233.42C259.236 224.212 257.026 216.201 252.606 209.387C248.186 202.573 242.201 197.416 234.65 193.917C227.1 190.418 219.365 187.932 211.446 186.459C203.527 184.801 195.24 183.972 186.584 183.972H280.507V184H309.56C309.633 162.137 309.364 143.744 308.365 139C305.521 125.5 296.521 102 273.048 88.9448C259.236 82.3149 244.411 79 228.573 79C199.291 79 175.166 89.0368 156.197 109.111ZM301.225 175.685H155.921C157.394 155.243 164.577 138.669 177.468 125.961C190.544 113.07 207.21 106.624 227.468 106.624C247.726 106.624 264.761 113.07 278.573 125.961C292.569 138.853 300.12 155.427 301.225 175.685ZM225.811 244.47C220.102 249.074 213.288 251.376 205.369 251.376C194.871 251.376 185.663 247.693 177.744 240.326C170.01 232.775 164.393 224.028 160.894 214.083C157.579 204.138 155.921 194.101 155.921 183.972H174.706C183.177 183.972 191.833 185.446 200.673 188.392C209.512 191.155 217.339 195.943 224.153 202.757C230.967 209.387 234.374 217.122 234.374 225.961C234.374 233.696 231.52 239.866 225.811 244.47ZM0 83.1437V276.514H33.5206L27.6243 225.961V110.768H68.2321C49.8159 126.79 40.6077 145.39 40.6077 166.569C40.6077 179.645 44.0147 190.326 50.8287 198.613C57.8269 206.901 67.6796 211.044 80.3868 211.044C92.3573 211.044 103.131 207.269 112.707 199.718V135.63C112.707 147.416 109.392 158.374 102.762 168.503C96.1326 178.632 87.2008 183.696 75.9669 183.696C68.4162 183.696 62.523 181.302 58.2873 176.514C54.2357 171.541 52.21 165.28 52.21 157.729C52.21 149.074 54.9724 140.51 60.4973 132.039C66.2063 123.567 73.2965 116.109 81.768 109.663C90.2394 103.217 99.0792 97.6925 108.287 93.0884C117.495 88.4844 126.151 85.1694 134.254 83.1437H0Z" fill="white"/>
<circle cx="229.021" cy="146.5" r="15.5" fill="white"/>
</svg>
