<svg width="79" height="79" viewBox="0 0 79 79" fill="none" xmlns="http://www.w3.org/2000/svg">
<path d="M14.5706 67.1525L9.02576 4.9375H69.9743L64.422 67.1426L39.463 74.0625L14.5706 67.1525Z" fill="#1572B6"/>
<path d="M39.5 68.7735L59.6697 63.1818L64.4146 10.0247H39.5V68.7735Z" fill="#33A9DC"/>
<path d="M39.5 32.5644H49.5972L50.2934 24.7508H39.5V17.1199H58.6328L58.4501 19.1665L56.5763 40.1953H39.5V32.5644Z" fill="white"/>
<path d="M39.5469 52.3823L39.5123 52.3921L31.0149 50.0962L30.4718 44.0107H22.8112L23.8802 55.9916L39.5098 60.3316L39.5469 60.3218V52.3823Z" fill="#EBEBEB"/>
<path d="M48.9479 39.8735L48.0295 50.0917L39.5197 52.3876V60.3271L55.1617 55.992L55.2778 54.7033L56.6035 39.8735H48.9479Z" fill="white"/>
<path d="M39.5271 17.1199V24.7508H21.0955L20.9424 23.035L20.5943 19.1665L20.4116 17.1199H39.5271Z" fill="#EBEBEB"/>
<path d="M39.5 32.5662V40.1971H31.1087L30.9557 38.4813L30.6101 34.6128L30.4274 32.5662H39.5Z" fill="#EBEBEB"/>
</svg>
