<svg width="85" height="85" viewBox="0 0 85 85" fill="none" xmlns="http://www.w3.org/2000/svg">
<path d="M56.6667 56.6668C64.4907 56.6668 70.8333 50.3242 70.8333 42.5002C70.8333 34.6761 64.4907 28.3335 56.6667 28.3335C48.8426 28.3335 42.5 34.6761 42.5 42.5002C42.5 50.3242 48.8426 56.6668 56.6667 56.6668Z" fill="#19BCFE"/>
<path fill-rule="evenodd" clip-rule="evenodd" d="M28.3334 84.9998C32.0906 84.9998 35.6939 83.5073 38.3507 80.8505C41.0075 78.1937 42.5 74.5904 42.5 70.8332V56.6665H28.3334C24.5761 56.6665 20.9728 58.1591 18.316 60.8158C15.6592 63.4726 14.1667 67.0759 14.1667 70.8332C14.1667 74.5904 15.6592 78.1937 18.316 80.8505C20.9728 83.5073 24.5761 84.9998 28.3334 84.9998Z" fill="#09CF83"/>
<path fill-rule="evenodd" clip-rule="evenodd" d="M28.3334 56.6668H42.5V28.3335H28.3334C24.5761 28.3335 20.9728 29.8261 18.316 32.4828C15.6592 35.1396 14.1667 38.7429 14.1667 42.5002C14.1667 46.2574 15.6592 49.8607 18.316 52.5175C20.9728 55.1743 24.5761 56.6668 28.3334 56.6668Z" fill="#A259FF"/>
<path fill-rule="evenodd" clip-rule="evenodd" d="M28.3334 28.3333H42.5V0H28.3334C24.5761 0 20.9728 1.49256 18.316 4.14932C15.6592 6.80609 14.1667 10.4094 14.1667 14.1667C14.1667 17.9239 15.6592 21.5272 18.316 24.184C20.9728 26.8408 24.5761 28.3333 28.3334 28.3333Z" fill="#F24E1E"/>
<path fill-rule="evenodd" clip-rule="evenodd" d="M56.6667 28.3333H42.5V0H56.6667C60.4239 0 64.0272 1.49256 66.684 4.14932C69.3408 6.80609 70.8333 10.4094 70.8333 14.1667C70.8333 17.9239 69.3408 21.5272 66.684 24.184C64.0272 26.8408 60.4239 28.3333 56.6667 28.3333Z" fill="#FF7262"/>
</svg>
