<svg width="76" height="76" viewBox="0 0 76 76" fill="none" xmlns="http://www.w3.org/2000/svg">
<g clip-path="url(#clip0)">
<path fill-rule="evenodd" clip-rule="evenodd" d="M37.886 0C27.8384 0.00125949 18.2027 3.99321 11.0979 11.0979C3.99321 18.2027 0.00125949 27.8384 0 37.886C0 54.6155 10.925 68.7942 25.7973 73.91C27.6593 74.1427 28.3527 72.979 28.3527 72.048V65.5405C17.898 67.868 15.5753 60.4295 15.5753 60.4295C13.946 56.012 11.3905 54.8482 11.3905 54.8482C7.904 52.5255 11.6185 52.5255 11.6185 52.5255C15.3378 52.7582 17.4325 56.4775 17.4325 56.4775C20.919 62.2867 26.2627 60.6575 28.3575 59.7312C28.5855 57.1757 29.7493 55.5512 30.6803 54.6202C22.3108 53.6892 13.4805 50.4355 13.4805 35.7912C13.4805 31.6112 14.8723 28.3527 17.4325 25.5645C17.195 24.8662 15.8032 20.919 17.898 15.8032C17.898 15.8032 21.1517 14.8722 28.3527 19.7552C31.3737 18.8242 34.6322 18.5915 37.886 18.5915C41.1397 18.5915 44.3935 19.057 47.4145 19.7552C54.6203 14.877 57.874 15.8032 57.874 15.8032C59.964 20.919 58.5675 24.8662 58.3348 25.7972C60.8945 28.5859 62.3061 32.2387 62.2868 36.024C62.2868 50.6682 53.4518 53.6892 45.0918 54.6202C46.4835 55.7792 47.6473 58.102 47.6473 61.5885V72.048C47.6473 72.979 48.3408 74.138 50.2028 73.91C57.7363 71.3676 64.2802 66.5216 68.9095 60.0572C73.5387 53.5928 76.0191 45.837 76 37.886C75.7673 16.967 58.805 0 37.886 0Z" fill="#8C007A"/>
</g>
<defs>
<clipPath id="clip0">
<rect width="76" height="76" fill="white"/>
</clipPath>
</defs>
</svg>
