<svg width="66" height="66" viewBox="0 0 66 66" fill="none" xmlns="http://www.w3.org/2000/svg">
<rect x="9.05884" y="10.353" width="49.1765" height="44" fill="#F7752F"/>
<path d="M28.9575 29.5072C28.6825 28.6547 28.435 27.8297 28.16 26.9772C27.885 26.1247 27.6375 25.3272 27.4175 24.5297C27.1975 23.7597 27.005 23.0447 26.8125 22.3847H26.7575C26.51 23.5672 26.2075 24.7497 25.8225 25.9322C25.41 27.2522 24.9975 28.6272 24.5575 30.0022C24.1725 31.4047 23.76 32.6972 23.3475 33.8522H30.3325C30.1675 33.272 29.9475 32.5872 29.7 31.8695C29.4525 31.1297 29.205 30.3322 28.9575 29.5072ZM54.3125 0.824707H11.6875C5.225 0.824707 0 6.04971 0 12.5122V53.4872C0 59.9497 5.225 65.1747 11.6875 65.1747H54.3125C60.775 65.1747 66 59.9497 66 53.4872V12.5122C66 6.04971 60.775 0.824707 54.3125 0.824707ZM40.425 46.2822H34.6748C34.485 46.3097 34.2925 46.1722 34.2375 45.9797L31.9825 39.4347H21.7525L19.6625 45.8972C19.6075 46.1447 19.3875 46.3097 19.14 46.285H13.97C13.6675 46.285 13.585 46.1172 13.6675 45.79L22.5225 20.2947C22.605 20.0197 22.6875 19.7172 22.7975 19.3872C22.9075 18.8097 22.9625 18.2047 22.9625 17.5997C22.935 17.4622 23.045 17.3247 23.1825 17.2972H30.305C30.525 17.2972 30.635 17.3797 30.6625 17.5172L40.7 45.8422C40.7825 46.142 40.7 46.2822 40.425 46.2822ZM49.775 45.8697C49.775 46.1722 49.6678 46.3097 49.4202 46.3097H44.0275C43.7525 46.3097 43.615 46.142 43.615 45.8697V24.6947C43.615 24.4197 43.7277 24.3097 43.9753 24.3097H49.4202C49.6678 24.3097 49.775 24.4472 49.775 24.6947V45.8697ZM49.2003 21.0372C48.8755 21.367 48.4839 21.6236 48.0518 21.7896C47.6197 21.9556 47.1571 22.0272 46.695 21.9997C45.7875 22.0272 44.9075 21.6697 44.2448 21.0372C43.6147 20.3483 43.2791 19.4403 43.3097 18.5072C43.2822 17.5722 43.6397 16.6922 44.297 16.0597C44.9625 15.4272 45.8425 15.0972 46.75 15.0972C47.8252 15.0972 48.6447 15.4272 49.2525 16.0597C49.8575 16.7197 50.1875 17.5997 50.16 18.5072C50.1875 19.4422 49.8575 20.3497 49.2003 21.0372Z" fill="#370000"/>
</svg>
