<svg width="95" height="95" viewBox="0 0 95 95" fill="none" xmlns="http://www.w3.org/2000/svg">
<path d="M0 0H95V95H0V0Z" fill="#F7DF1E"/>
<path d="M24.979 79.3888L32.2487 74.9891C33.6515 77.4758 34.9273 79.5799 37.9877 79.5799C40.9212 79.5799 42.7711 78.4325 42.7711 73.969V43.6143H51.6985V74.0952C51.6985 83.3417 46.2783 87.5506 38.3703 87.5506C31.2286 87.5506 27.0831 83.852 24.9786 79.3881" fill="black"/>
<path d="M56.5477 78.4315L63.8167 74.223C65.7304 77.3479 68.2175 79.6435 72.6171 79.6435C76.3166 79.6435 78.6752 77.794 78.6752 75.2431C78.6752 72.1823 76.252 71.098 72.1707 69.313L69.9393 68.3556C63.4983 65.6143 59.2259 62.1706 59.2259 54.9008C59.2259 48.2048 64.3273 43.103 72.2987 43.103C77.9743 43.103 82.0555 45.0802 84.9887 50.2455L78.0373 54.7097C76.5066 51.9677 74.8493 50.8837 72.2984 50.8837C69.6836 50.8837 68.0256 52.5418 68.0256 54.7097C68.0256 57.3879 69.6836 58.4726 73.5096 60.1307L75.7414 61.087C83.3302 64.3396 87.6026 67.6553 87.6026 75.1158C87.6026 83.1515 81.2896 87.5512 72.8083 87.5512C64.5184 87.5512 59.1617 83.5975 56.5473 78.4319" fill="black"/>
</svg>
