<svg width="83" height="43" viewBox="0 0 83 43" fill="none" xmlns="http://www.w3.org/2000/svg">
<path d="M41.5 42.8726C64.4198 42.8726 83 33.2752 83 21.4363C83 9.59736 64.4198 0 41.5 0C18.5802 0 0 9.59736 0 21.4363C0 33.2752 18.5802 42.8726 41.5 42.8726Z" fill="url(#paint0_radial)"/>
<path d="M41.5 41.2799C63.5245 41.2799 81.3789 32.3956 81.3789 21.4362C81.3789 10.4769 63.5245 1.59253 41.5 1.59253C19.4755 1.59253 1.62109 10.4769 1.62109 21.4362C1.62109 32.3956 19.4755 41.2799 41.5 41.2799Z" fill="#6181B6"/>
<path d="M49.573 27.8704L51.5508 17.8689C52.0047 15.6074 51.6156 13.9193 50.4484 12.8682C49.3137 11.8489 47.3683 11.3393 44.5152 11.3393H41.0785L42.0512 6.3704C42.0836 6.17929 42.0512 5.98818 41.9215 5.82892C41.7918 5.66966 41.6297 5.60596 41.4351 5.60596H36.7015C36.3773 5.60596 36.1179 5.82892 36.0531 6.11559L33.9457 16.7223C33.7512 15.5119 33.2972 14.4926 32.5191 13.6645C31.125 12.1037 28.9527 11.3074 26.0023 11.3074H16.8918C16.5676 11.3074 16.3082 11.5304 16.2433 11.8171L11.9961 33.3489C11.9636 33.54 11.9961 33.7312 12.1258 33.8904C12.2554 34.0497 12.4176 34.1134 12.6121 34.1134H17.3781C17.7023 34.1134 17.9617 33.8904 18.0265 33.6037L19.064 28.4119H22.598C24.4461 28.4119 26.0347 28.2208 27.2344 27.8386C28.4988 27.4245 29.6336 26.7556 30.6387 25.8319C31.4492 25.0993 32.1301 24.2712 32.6488 23.3793L31.8058 27.6793C31.7734 27.8704 31.8058 28.0615 31.9355 28.2208C32.0652 28.38 32.2273 28.4437 32.4219 28.4437H37.1554C37.4797 28.4437 37.739 28.2208 37.8039 27.9341L40.1383 16.1489H43.3805C44.7746 16.1489 45.1637 16.4037 45.2933 16.5311C45.3906 16.6267 45.5851 17.0089 45.3582 18.1874L43.4777 27.7112C43.4453 27.9023 43.4777 28.0934 43.6074 28.2526C43.7371 28.4119 43.8992 28.4756 44.0937 28.4756H48.957C49.2488 28.38 49.5082 28.1571 49.573 27.8704ZM27.6558 19.5889C27.364 21.086 26.8129 22.1689 26.0023 22.7741C25.1918 23.3793 23.8625 23.6978 22.1117 23.6978H20.0043L21.5281 15.9897H24.2515C26.2617 15.9897 27.0722 16.4037 27.3965 16.7541C27.8179 17.2637 27.9152 18.2511 27.6558 19.5889Z" fill="white"/>
<path d="M69.8043 13.6647C68.4102 12.1039 66.2379 11.3076 63.2875 11.3076H54.1121C53.7879 11.3076 53.5285 11.5306 53.4637 11.8172L49.2164 33.3173C49.184 33.5084 49.2164 33.6995 49.3461 33.8587C49.4758 34.018 49.6379 34.0817 49.8324 34.0817H54.5984C54.9227 34.0817 55.182 33.8587 55.2469 33.5721L56.2844 28.3802H59.8184C61.6664 28.3802 63.2551 28.1891 64.4547 27.8069C65.7192 27.3928 66.8539 26.7239 67.859 25.8002C68.702 25.0358 69.4152 24.1758 69.934 23.2521C70.4527 22.3284 70.8418 21.3091 71.0688 20.1943C71.6199 17.4232 71.1985 15.2572 69.8043 13.6647ZM64.8438 19.5891C64.552 21.0861 64.0008 22.1691 63.1902 22.7743C62.3797 23.3795 61.0504 23.698 59.2996 23.698H57.1922L58.716 15.9898H61.4395C63.4496 15.9898 64.2602 16.4039 64.5844 16.7543C65.0383 17.2639 65.1356 18.2513 64.8438 19.5891Z" fill="white"/>
<path d="M24.2516 15.353C26.0672 15.353 27.2668 15.6715 27.8828 16.3404C28.4988 17.0093 28.6285 18.1241 28.3043 19.7167C27.9801 21.373 27.3316 22.5833 26.3914 23.2841C25.4512 23.9848 24.0246 24.3352 22.1117 24.3352H19.2262L21.0094 15.353H24.2516ZM12.6445 33.4448H17.4105L18.5453 27.7433H22.6305C24.4461 27.7433 25.9051 27.5522 27.0723 27.17C28.2395 26.7878 29.277 26.1826 30.2496 25.2908C31.0602 24.5582 31.7086 23.7619 32.1949 22.9019C32.6812 22.0419 33.0379 21.0863 33.2324 20.0352C33.7512 17.487 33.3621 15.5122 32.0977 14.0789C30.8332 12.6456 28.823 11.9448 26.0672 11.9448H16.8918L12.6445 33.4448Z" fill="#000004"/>
<path d="M36.734 6.24316H41.4676L40.3328 11.9446H44.5476C47.2062 11.9446 49.0219 12.3906 50.0269 13.3143C51.032 14.238 51.3238 15.7032 50.9347 17.7417L48.957 27.7432H44.1586L46.039 18.2195C46.266 17.1365 46.1687 16.4039 45.8121 16.0217C45.4554 15.6395 44.6449 15.4165 43.4453 15.4165H39.6519L37.2203 27.7432H32.4867L36.734 6.24316Z" fill="#000004"/>
<path d="M61.4394 15.353C63.2551 15.353 64.4547 15.6715 65.0707 16.3404C65.6867 17.0093 65.8164 18.1241 65.4922 19.7167C65.168 21.373 64.5195 22.5833 63.5793 23.2841C62.639 23.9848 61.2125 24.3352 59.2996 24.3352H56.414L58.1972 15.353H61.4394ZM49.8324 33.4448H54.5984L55.7332 27.7433H59.8183C61.634 27.7433 63.0929 27.5522 64.2601 27.17C65.4273 26.7878 66.4648 26.1826 67.4375 25.2908C68.248 24.5582 68.8965 23.7619 69.3828 22.9019C69.8691 22.0419 70.2258 21.0863 70.4203 20.0352C70.939 17.487 70.55 15.5122 69.2855 14.0789C68.0211 12.6456 66.0109 11.9448 63.2551 11.9448H54.0797L49.8324 33.4448Z" fill="#000004"/>
<defs>
<radialGradient id="paint0_radial" cx="0" cy="0" r="1" gradientUnits="userSpaceOnUse" gradientTransform="translate(24.9167 7.53854) scale(54.4997 53.5415)">
<stop stop-color="white"/>
<stop offset="0.5" stop-color="#4C6B97"/>
<stop offset="1" stop-color="#231F20"/>
</radialGradient>
</defs>
</svg>
