<svg width="124" height="110" viewBox="0 0 124 110" fill="none" xmlns="http://www.w3.org/2000/svg">
<path d="M101.953 35.6532C100.633 35.2018 99.3022 34.7836 97.9614 34.399C98.1867 33.4814 98.394 32.5749 98.5781 31.6843C101.6 17.0601 99.6243 5.27856 92.8774 1.39951C86.4086 -2.31921 75.8294 1.5584 65.145 10.8296C64.0921 11.7449 63.0624 12.6867 62.0572 13.6539C61.3842 13.0107 60.6993 12.38 60.0029 11.7622C48.8051 1.84913 37.5812 -2.32887 30.8416 1.56129C24.3786 5.2916 22.4648 16.3671 25.1851 30.2268C25.4557 31.5995 25.7613 32.965 26.1015 34.3222C24.5128 34.7723 22.9797 35.2514 21.5125 35.7614C8.38405 40.3253 0 47.4773 0 54.8959C0 62.5579 9.00066 70.2431 22.6746 74.9031C23.7831 75.2793 24.9009 75.6279 26.0269 75.9486C25.6612 77.4104 25.3366 78.882 25.0533 80.3618C22.46 93.981 24.4852 104.795 30.9307 108.501C37.588 112.329 48.7615 108.395 59.6411 98.9124C60.5233 98.1415 61.3861 97.3487 62.2286 96.5349C63.3173 97.5822 64.435 98.599 65.5805 99.5842C76.1195 108.626 86.5278 112.277 92.9671 108.56C99.618 104.721 101.78 93.1045 98.9733 78.9709C98.7522 77.8637 98.5043 76.7619 98.2298 75.6666C99.0145 75.4348 99.7846 75.1962 100.535 74.948C114.751 70.2523 124 62.6603 124 54.8959C124 47.4502 115.345 40.2499 101.953 35.6532ZM98.8697 69.9349C98.1915 70.1586 97.496 70.3744 96.7868 70.5845C95.2175 65.6309 93.0998 60.3638 90.5079 54.9215C92.9811 49.609 95.0174 44.4091 96.5427 39.4878C97.8113 39.8539 99.0421 40.2398 100.229 40.6469C111.704 44.5859 118.703 50.4088 118.703 54.8959C118.703 59.6752 111.144 65.8796 98.8697 69.9349ZM93.7769 79.9967C95.0179 86.2461 95.1947 91.8966 94.3727 96.3142C93.6345 100.284 92.1494 102.93 90.3127 103.99C86.4052 106.245 78.0483 103.314 69.0355 95.5806C67.9701 94.6646 66.9304 93.7192 65.9176 92.7456C69.4119 88.9356 72.9038 84.5065 76.3118 79.5872C82.3064 79.0569 87.9698 78.1895 93.1056 77.0058C93.3584 78.0234 93.5832 79.0212 93.7769 79.9967ZM42.2743 103.6C38.4565 104.944 35.4156 104.983 33.5774 103.926C29.666 101.677 28.04 92.9939 30.2579 81.3471C30.5216 79.9708 30.8235 78.6021 31.1632 77.2425C36.2424 78.3629 41.8645 79.1685 47.8732 79.6543C51.3045 84.4679 54.8971 88.8922 58.5178 92.7664C57.7484 93.5088 56.9607 94.2321 56.1555 94.9358C51.3442 99.1288 46.5233 102.104 42.2743 103.6ZM24.3883 69.9055C18.3418 67.8447 13.3484 65.1668 9.92581 62.2445C6.85003 59.6187 5.29761 57.0112 5.29761 54.8959C5.29761 50.3938 12.029 44.6515 23.2563 40.7488C24.6188 40.2755 26.0448 39.8288 27.5246 39.4096C29.0765 44.4419 31.1119 49.7037 33.5682 55.0243C31.0799 60.4237 29.0155 65.7695 27.4486 70.8612C26.4208 70.5677 25.4004 70.249 24.3883 69.9055ZM30.3839 29.2121C28.0535 17.3378 29.6011 8.38055 33.496 6.13242C37.6442 3.73795 46.8173 7.15192 56.4859 15.7117C57.1163 16.2712 57.7366 16.8419 58.3464 17.4238C54.7436 21.2811 51.1839 25.6726 47.7831 30.4576C41.9512 30.9966 36.3688 31.8621 31.2364 33.0216C30.9202 31.7593 30.6359 30.4892 30.3839 29.2126V29.2121ZM83.872 42.3812C82.6597 40.2934 81.4024 38.2318 80.1011 36.198C84.0575 36.6969 87.8482 37.359 91.4079 38.1684C90.3393 41.5838 89.0073 45.1543 87.4394 48.8151C86.2933 46.647 85.1039 44.5019 83.872 42.3812ZM62.0596 21.1985C64.5028 23.8378 66.9498 26.7843 69.3567 29.9815C64.4742 29.7515 59.5835 29.7506 54.701 29.9786C57.1102 26.8109 59.5781 23.8683 62.0596 21.1985ZM40.1072 42.4174C38.8906 44.5211 37.7235 46.6527 36.6066 48.8107C35.0644 45.163 33.7445 41.5761 32.6667 38.1124C36.2046 37.3233 39.9774 36.678 43.9086 36.1883C42.5928 38.2346 41.3253 40.3114 40.1072 42.4169V42.4174ZM44.0215 73.9792C39.96 73.5271 36.1305 72.9152 32.5936 72.1473C33.6883 68.6218 35.0373 64.9586 36.6129 61.2327C37.7342 63.3922 38.9062 65.5252 40.128 67.6298C41.3845 69.7934 42.6855 71.9126 44.0215 73.9792ZM62.2059 88.9651C59.6949 86.2645 57.1906 83.2764 54.745 80.0629C57.1194 80.1556 59.5399 80.2029 62 80.2029C64.5275 80.2029 67.0259 80.1464 69.485 80.0373C67.0704 83.3088 64.6326 86.3012 62.2059 88.9651ZM87.4893 61.0424C89.1468 64.8094 90.5437 68.4533 91.653 71.9184C88.0579 72.7365 84.1761 73.3953 80.0861 73.8845C81.3967 71.8129 82.6658 69.7155 83.8928 67.5936C85.1402 65.4367 86.3393 63.2525 87.4893 61.0424ZM79.3043 64.9548C77.426 68.2081 75.4421 71.3997 73.3557 74.5244C69.5764 74.7913 65.7888 74.9239 62 74.9219C58.141 74.9219 54.3876 74.8021 50.7732 74.5684C48.6323 71.4508 46.6106 68.2537 44.7122 64.9837H44.7127C42.8232 61.7311 41.0583 58.4081 39.4218 55.0219C41.0542 51.6349 42.8137 48.3104 44.6967 45.0553L44.6962 45.0558C46.5785 41.7998 48.5841 38.6163 50.7087 35.5122C54.3963 35.234 58.1778 35.0891 61.9995 35.0891H62C65.8392 35.0891 69.6255 35.2355 73.3121 35.5156C75.4153 38.6151 77.4081 41.7876 79.2869 45.0273C81.1761 48.2752 82.9589 51.5836 84.6324 54.9471C82.9761 58.345 81.1989 61.683 79.3043 64.9548ZM90.2318 5.97497C94.3839 8.36268 95.9988 17.9913 93.3899 30.618C93.2233 31.4235 93.0363 32.2441 92.8329 33.0762C87.6879 31.892 82.1016 31.0116 76.2527 30.4644C72.8456 25.6267 69.315 21.2285 65.7709 17.4209C66.6997 16.5282 67.6507 15.6586 68.6229 14.813C77.7775 6.86988 86.3335 3.7336 90.2318 5.97497ZM62 43.8556C68.1152 43.8556 73.0728 48.7986 73.0728 54.8959C73.0728 60.9931 68.1152 65.9361 62 65.9361C55.8848 65.9361 50.9272 60.9931 50.9272 54.8959C50.9272 48.7986 55.8848 43.8556 62 43.8556Z" fill="#00D8FF"/>
</svg>
