<svg width="105" height="105" viewBox="0 0 105 105" fill="none" xmlns="http://www.w3.org/2000/svg">
<path d="M11.3679 34.1673L32.8548 93.0182C17.8246 85.7359 7.47278 70.3246 7.47278 52.5C7.47278 45.9587 8.86996 39.7772 11.3679 34.1673ZM82.8992 50.2349C82.8992 44.6673 80.9093 40.8145 79.1946 37.8085C76.9083 34.1038 74.7702 30.9496 74.7702 27.245C74.7702 23.0958 77.9032 19.2429 82.3276 19.2429C82.5181 19.2429 82.7087 19.2641 82.9204 19.2853C74.8972 11.9395 64.2278 7.45161 52.5 7.45161C36.7712 7.45161 22.9264 15.5171 14.8609 27.753C15.9194 27.7954 16.9143 27.8165 17.7611 27.8165C22.4607 27.8165 29.7641 27.245 29.7641 27.245C32.1986 27.0968 32.4738 30.6744 30.0605 30.9496C30.0605 30.9496 27.626 31.2248 24.9163 31.373L41.3226 80.1472L51.1875 50.5948L44.1804 31.373C41.746 31.2248 39.4597 30.9496 39.4597 30.9496C37.0252 30.8014 37.3216 27.0968 39.7349 27.245C39.7349 27.245 47.1653 27.8165 51.5897 27.8165C56.2893 27.8165 63.5927 27.245 63.5927 27.245C66.0272 27.0968 66.3024 30.6744 63.8891 30.9496C63.8891 30.9496 61.4546 31.2248 58.745 31.373L75.0242 79.7873L79.5121 64.7782C81.4173 58.5544 82.8992 54.0877 82.8992 50.2349ZM53.2833 56.4375L39.7772 95.7067C43.8206 96.8921 48.0756 97.5484 52.5 97.5484C57.75 97.5484 62.7671 96.6381 67.4456 94.9869C67.3186 94.7964 67.2127 94.5847 67.128 94.373L53.2833 56.4375ZM92.0232 30.8861C92.2137 32.3256 92.3196 33.8498 92.3196 35.5222C92.3196 40.0948 91.4728 45.2177 88.8901 51.6532L75.13 91.4304C88.5302 83.6189 97.5272 69.1179 97.5272 52.5C97.5272 44.6673 95.5373 37.3004 92.0232 30.8861ZM105 52.5C105 81.4597 81.4385 105 52.5 105C23.5403 105 0 81.4385 0 52.5C0 23.5403 23.5403 0 52.5 0C81.4385 0 105 23.5403 105 52.5ZM102.587 52.5C102.587 24.874 80.1048 2.41331 52.5 2.41331C24.874 2.41331 2.41331 24.874 2.41331 52.5C2.41331 80.126 24.8952 102.587 52.5 102.587C80.126 102.587 102.587 80.126 102.587 52.5Z" fill="#016C96"/>
</svg>
