<svg width="60" height="60" viewBox="0 0 60 60" fill="none" xmlns="http://www.w3.org/2000/svg">
<path d="M11.7578 0C5.29191 0 0 5.29179 0 11.7578V48.2442C0 54.71 5.29179 60 11.7578 60H48.2442C54.7101 60 60 54.7101 60 48.2442V11.7578C60 5.29191 54.7101 0 48.2442 0H11.7578ZM14.715 9.90121C17.8152 9.90121 19.7249 11.9365 19.7838 14.6118C19.7838 17.228 17.8151 19.3205 14.655 19.3205H14.5969C11.5556 19.3205 9.58997 17.2281 9.58997 14.6118C9.58997 11.9365 11.6151 9.90121 14.715 9.90121H14.715ZM41.4315 22.4053C47.3938 22.4053 51.8634 26.3023 51.8634 34.6768V50.3106H42.8023V35.725C42.8023 32.0598 41.4909 29.5592 38.2117 29.5592C35.7084 29.5592 34.2163 31.2446 33.5611 32.8728C33.3218 33.4553 33.263 34.2688 33.263 35.0837V50.3106H24.2019C24.2019 50.3106 24.3208 25.603 24.2019 23.0447H33.2649V26.9058C34.469 25.048 36.6228 22.4052 41.4315 22.4052V22.4053ZM10.1244 23.0467H19.1856V50.3107H10.1244V23.0467Z" fill="#f3d759"/>
</svg>
