<svg width="60" height="60" viewBox="0 0 60 60" fill="none" xmlns="http://www.w3.org/2000/svg">
<g clip-path="url(#clip0)">
<path fill-rule="evenodd" clip-rule="evenodd" d="M29.91 0C21.9777 0.000994337 14.3705 3.15254 8.76153 8.76153C3.15254 14.3705 0.000994337 21.9777 0 29.91C0 43.1175 8.625 54.3112 20.3663 58.35C21.8363 58.5337 22.3837 57.615 22.3837 56.88V51.7425C14.13 53.58 12.2963 47.7075 12.2963 47.7075C11.01 44.22 8.9925 43.3012 8.9925 43.3012C6.24 41.4675 9.1725 41.4675 9.1725 41.4675C12.1088 41.6512 13.7625 44.5875 13.7625 44.5875C16.515 49.1737 20.7337 47.8875 22.3875 47.1562C22.5675 45.1387 23.4862 43.8562 24.2213 43.1212C17.6138 42.3862 10.6425 39.8175 10.6425 28.2562C10.6425 24.9562 11.7413 22.3837 13.7625 20.1825C13.575 19.6312 12.4762 16.515 14.13 12.4762C14.13 12.4762 16.6987 11.7412 22.3837 15.5962C24.7687 14.8612 27.3412 14.6775 29.91 14.6775C32.4787 14.6775 35.0475 15.045 37.4325 15.5962C43.1213 11.745 45.69 12.4762 45.69 12.4762C47.34 16.515 46.2375 19.6312 46.0537 20.3662C48.0746 22.5678 49.189 25.4516 49.1737 28.44C49.1737 40.0012 42.1987 42.3862 35.5988 43.1212C36.6975 44.0362 37.6162 45.87 37.6162 48.6225V56.88C37.6162 57.615 38.1637 58.53 39.6338 58.35C45.5813 56.3428 50.7475 52.5171 54.4022 47.4136C58.0569 42.3101 60.0151 36.1871 60 29.91C59.8162 13.395 46.425 0 29.91 0Z" fill="#f3d759"/>
</g>
<defs>
<clipPath id="clip0">
<rect width="60" height="60" fill="white"/>
</clipPath>
</defs>
</svg>
